<svg aria-hidden="true" style="position: absolute; width: 0; height: 0; overflow: hidden;" version="1.1" xmlns="http://www.w3.org/2000/svg" xmlns:xlink="http://www.w3.org/1999/xlink">
<defs>
<symbol id="icon-header-VK" viewBox="0 0 55 32">
<path fill="#fff" style="fill: var(--color1, #fff)" d="M54.77 2.361c0.466 1.225-0.965 4.085-4.297 8.576-0.398 0.512-0.988 1.31-1.569 2.117l-0.23 0.336c-1.531 1.906-2.4 3.166-2.599 3.778-0.334 0.816-0.199 1.6 0.4 2.347 0.334 0.409 1.099 1.225 2.299 2.45h0.101v0.103c2.731 2.519 4.562 4.663 5.497 6.434l0.199 0.407 0.199 0.768v0.969l-0.699 0.766-1.698 0.357-7.296 0.206c-0.466 0.069-1.017 0-1.65-0.206-0.554-0.165-1.034-0.374-1.483-0.631l0.034 0.018-0.599-0.407c-0.599-0.409-1.266-1.022-2-1.838-0.731-0.818-1.381-1.566-1.947-2.247-0.518-0.633-1.093-1.187-1.726-1.669l-0.025-0.018c-0.599-0.441-1.131-0.594-1.6-0.457-0.094 0.010-0.179 0.047-0.248 0.101l0.001-0.001c-0.101 0.069-0.267 0.222-0.501 0.459s-0.434 0.528-0.599 0.869c-0.193 0.426-0.35 0.923-0.444 1.441l-0.006 0.040c-0.129 0.646-0.202 1.389-0.202 2.149 0 0.052 0 0.104 0.001 0.156l-0-0.008c0 0.274-0.032 0.526-0.098 0.766-0.057 0.218-0.126 0.405-0.21 0.583l0.009-0.021-0.098 0.101c-0.4 0.411-0.935 0.613-1.6 0.613h-3.2c-1.399 0.137-2.814 0-4.247-0.407-1.425-0.394-2.67-0.935-3.818-1.623l0.070 0.039c-1.065-0.647-2.032-1.294-2.898-1.941-0.74-0.538-1.392-1.091-2.001-1.688l0.003 0.003-0.699-0.715c-0.302-0.239-0.566-0.507-0.792-0.805l-0.008-0.011c-0.494-0.61-1.166-1.474-1.827-2.348l-0.223-0.308c-0.939-1.226-1.942-2.656-2.889-4.127l-0.158-0.262c-0.999-1.568-2.167-3.627-3.497-6.181-1.083-1.993-2.325-4.595-3.455-7.255l-0.248-0.658c-0.108-0.239-0.178-0.517-0.196-0.809l-0-0.007c0-0.206 0.034-0.375 0.101-0.512l0.098-0.098c0.267-0.414 0.8-0.617 1.6-0.617h7.897c0.199 0 0.398 0.053 0.599 0.153l0.501 0.256 0.098 0.103c0.334 0.21 0.582 0.53 0.696 0.907l0.003 0.011c0.4 0.953 0.85 1.957 1.349 3.013 0.503 1.056 0.885 1.856 1.152 2.4l0.398 0.816c0.601 1.159 1.15 2.162 1.65 3.013s0.949 1.515 1.349 1.991c0.4 0.478 0.8 0.853 1.2 1.125s0.731 0.409 0.999 0.409c0.267 0 0.533-0.034 0.8-0.103l0.101-0.153 0.35-0.663 0.4-1.328 0.249-2.35v-3.675c-0.069-0.798-0.175-1.513-0.32-2.214l0.021 0.12c-0.133-0.647-0.267-1.106-0.4-1.378l-0.101-0.306c-0.466-0.681-1.298-1.125-2.498-1.328-0.199 0-0.133-0.238 0.199-0.715 0.334-0.341 0.702-0.613 1.099-0.816 1.001-0.546 3.269-0.784 6.798-0.715 1.531 0 2.832 0.137 3.897 0.409 0.334 0.069 0.633 0.187 0.901 0.357 0.266 0.173 0.472 0.417 0.595 0.705l0.004 0.010c0.135 0.306 0.233 0.613 0.299 0.919 0.069 0.306 0.101 0.75 0.101 1.326v1.584c-0.065 0.562-0.101 1.212-0.101 1.872 0 0.060 0 0.121 0.001 0.181l-0-0.009v2.45c0 0.206-0.016 0.613-0.048 1.225-0.034 0.613-0.050 1.090-0.050 1.431 0 0.338 0.032 0.731 0.098 1.173 0.069 0.443 0.183 0.818 0.35 1.125 0.219 0.422 0.617 0.726 1.090 0.815l0.010 0.001c0.167 0.034 0.418-0.069 0.75-0.306 0.334-0.238 0.702-0.578 1.099-1.022 0.4-0.441 0.901-1.106 1.499-1.989 0.601-0.887 1.234-1.909 1.899-3.065 1.134-2.043 2.165-4.256 3.099-6.638 0.066-0.137 0.149-0.29 0.249-0.459 0.082-0.152 0.201-0.274 0.345-0.357l0.004-0.002h0.101l0.096-0.101 0.4-0.103h0.601l8.197-0.103c0.734-0.069 1.349-0.032 1.851 0.103 0.498 0.137 0.782 0.306 0.848 0.512l0.199 0.306z"></path>
</symbol>
<symbol id="icon-header-utube" viewBox="0 0 48 32">
<path fill="#fff" style="fill: var(--color1, #fff)" d="M46.075 5.456c-0.276-0.965-0.787-1.79-1.468-2.436l-0.002-0.002c-0.698-0.664-1.564-1.159-2.527-1.415l-0.041-0.009c-3.605-0.95-18.048-0.95-18.048-0.95-0.497-0.006-1.084-0.009-1.672-0.009-5.762 0-11.446 0.331-17.035 0.976l0.681-0.064c-1.004 0.284-1.868 0.789-2.57 1.461l0.002-0.002c-0.685 0.655-1.202 1.481-1.483 2.409l-0.010 0.039c-0.597 3.066-0.939 6.591-0.939 10.196 0 0.124 0 0.247 0.001 0.37l-0-0.019c-0.001 0.107-0.001 0.233-0.001 0.359 0 3.602 0.342 7.124 0.994 10.536l-0.056-0.349c0.262 0.92 0.774 1.76 1.488 2.437 0.712 0.677 1.598 1.168 2.573 1.426 3.653 0.949 18.026 0.949 18.026 0.949 0.498 0.006 1.087 0.010 1.676 0.010 5.768 0 11.459-0.331 17.055-0.976l-0.683 0.064c1.004-0.265 1.87-0.76 2.57-1.426l-0.002 0.002c0.71-0.678 1.216-1.52 1.469-2.438 0.662-3.477 0.984-7.008 0.96-10.547 0.051-3.555-0.27-7.104-0.958-10.592v0.003zM19.397 22.573v-13.144l12.016 6.573-12.016 6.571z"></path>
</symbol>
<symbol id="icon-foot-VK" viewBox="0 0 53 32">
<path fill="#8d86c9" style="fill: var(--color2, #8d86c9)" d="M53.25 2.361c0.453 1.225-0.939 4.084-4.178 8.578-0.453 0.612-1.036 1.429-1.749 2.45-1.49 1.906-2.332 3.164-2.526 3.78-0.325 0.818-0.196 1.6 0.388 2.347 0.325 0.409 1.070 1.227 2.236 2.453h0.096v0.101c2.656 2.519 4.437 4.663 5.344 6.434l0.196 0.409 0.194 0.764v0.971l-0.681 0.764-1.652 0.359-7.093 0.204c-0.453 0.068-0.988 0-1.604-0.204s-1.084-0.409-1.408-0.613l-0.583-0.409c-0.583-0.409-1.232-1.020-1.943-1.838-0.557-0.631-1.176-1.361-1.783-2.102l-0.112-0.141c-0.504-0.633-1.062-1.186-1.679-1.669l-0.022-0.017c-0.583-0.443-1.102-0.596-1.554-0.46-0.066 0-0.146 0.036-0.244 0.103-0.178 0.143-0.336 0.293-0.482 0.455l-0.003 0.004c-0.232 0.249-0.427 0.535-0.575 0.849l-0.009 0.020c-0.162 0.34-0.308 0.834-0.437 1.481-0.125 0.646-0.197 1.389-0.197 2.148 0 0.052 0 0.105 0.001 0.157l-0-0.008c0 0.272-0.032 0.528-0.096 0.764-0.066 0.24-0.13 0.427-0.196 0.564l-0.096 0.101c-0.389 0.409-0.907 0.613-1.556 0.613h-3.109c-0.307 0.031-0.664 0.049-1.025 0.049-1.107 0-2.176-0.167-3.181-0.478l0.076 0.020c-1.392-0.409-2.606-0.937-3.644-1.582-1.097-0.683-2.016-1.322-2.902-2.003l0.084 0.062c-0.717-0.537-1.351-1.089-1.942-1.684l-0.001-0.001-0.679-0.715c-0.196-0.135-0.453-0.409-0.779-0.818-0.324-0.407-0.987-1.292-1.991-2.654-0.903-1.211-1.88-2.643-2.801-4.113l-0.162-0.278c-0.972-1.564-2.107-3.625-3.401-6.178-1.044-1.972-2.251-4.576-3.349-7.238l-0.247-0.677c-0.106-0.24-0.175-0.518-0.193-0.811l-0-0.007c0-0.203 0.032-0.373 0.098-0.508l0.096-0.103c0.26-0.411 0.779-0.613 1.556-0.613h7.676c0.214 0.003 0.415 0.059 0.589 0.156l-0.006-0.003 0.485 0.254 0.098 0.103c0.324 0.204 0.551 0.51 0.679 0.919 0.391 0.953 0.827 1.956 1.312 3.012 0.487 1.056 0.859 1.856 1.118 2.4l0.389 0.818c0.581 1.156 1.116 2.162 1.602 3.012 0.487 0.852 0.924 1.515 1.312 1.991 0.389 0.476 0.779 0.852 1.166 1.124 0.389 0.272 0.713 0.409 0.972 0.409s0.517-0.036 0.777-0.101l0.098-0.155 0.34-0.663 0.389-1.328 0.242-2.347v-3.68c-0.067-0.798-0.17-1.513-0.312-2.214l0.021 0.122c-0.13-0.647-0.258-1.108-0.388-1.38l-0.098-0.306c-0.453-0.681-1.262-1.124-2.428-1.328-0.196 0-0.13-0.238 0.194-0.715 0.324-0.34 0.681-0.613 1.068-0.818 0.972-0.544 3.175-0.782 6.608-0.715 1.49 0 2.754 0.137 3.79 0.409 0.324 0.068 0.615 0.187 0.873 0.357 0.26 0.171 0.455 0.409 0.583 0.715 0.13 0.308 0.228 0.613 0.293 0.919 0.064 0.308 0.096 0.748 0.096 1.328v1.582c-0.064 0.546-0.098 1.227-0.098 2.044v2.45c0 0.204-0.016 0.612-0.048 1.227-0.032 0.612-0.048 1.088-0.048 1.428 0 0.341 0.032 0.732 0.098 1.173 0.064 0.444 0.178 0.818 0.338 1.125 0.164 0.306 0.373 0.526 0.633 0.663 0.126 0.066 0.273 0.119 0.427 0.151l0.011 0.002c0.162 0.036 0.405-0.068 0.729-0.306s0.681-0.58 1.068-1.020c0.389-0.444 0.875-1.108 1.458-1.991 0.583-0.885 1.198-1.908 1.847-3.065 0.999-1.812 2.012-3.999 2.882-6.257l0.129-0.381c0.066-0.135 0.146-0.288 0.244-0.459 0.078-0.15 0.194-0.272 0.335-0.355l0.004-0.002h0.098l0.096-0.103 0.389-0.101h0.583l7.968-0.101c0.711-0.069 1.312-0.036 1.797 0.101s0.761 0.306 0.827 0.51l0.194 0.308z"></path>
</symbol>
<symbol id="icon-foot-utube" viewBox="0 0 44 32">
<path fill="#8d86c9" style="fill: var(--color2, #8d86c9)" d="M42.723 6.016c-0.261-0.914-0.745-1.695-1.39-2.308l-0.002-0.002c-0.661-0.629-1.481-1.098-2.393-1.34l-0.039-0.009c-3.414-0.899-17.091-0.899-17.091-0.899-0.472-0.006-1.030-0.009-1.589-0.009-5.454 0-10.835 0.313-16.125 0.923l0.645-0.060c-0.912 0.253-1.748 0.727-2.432 1.382-0.649 0.62-1.138 1.402-1.404 2.281l-0.010 0.037c-0.565 2.902-0.888 6.239-0.888 9.652 0 0.118 0 0.236 0.001 0.353l-0-0.018c-0.022 3.345 0.273 6.691 0.887 9.987 0.247 0.871 0.733 1.665 1.408 2.307s1.514 1.105 2.438 1.351c3.459 0.897 17.069 0.897 17.069 0.897 0.473 0.006 1.033 0.009 1.593 0.009 5.46 0 10.848-0.313 16.145-0.923l-0.646 0.061c0.951-0.251 1.771-0.72 2.434-1.352l-0.002 0.002c0.672-0.64 1.149-1.44 1.391-2.308 0.625-3.292 0.931-6.637 0.911-9.988 0.003-0.201 0.005-0.439 0.005-0.677 0-3.309-0.333-6.541-0.966-9.663l0.053 0.31v0.003zM17.459 22.224v-12.447l11.38 6.225-11.38 6.221z"></path>
</symbol>
<symbol id="icon-foot-telegram" viewBox="0 0 40 32">
<path fill="#8d86c9" style="fill: var(--color2, #8d86c9)" d="M37.3 0.21l-35.432 13.034c-2.42 0.926-2.404 2.214-0.444 2.786l9.098 2.71 21.046-12.668c0.996-0.578 1.904-0.266 1.158 0.366l-17.054 14.682-0.626 8.946c0.92 0 1.324-0.404 1.84-0.878l4.42-4.1 9.19 6.478c1.694 0.89 2.912 0.432 3.332-1.498l6.034-27.122c0.618-2.362-0.946-3.434-2.562-2.736z"></path>
</symbol>
<symbol id="icon-7" viewBox="0 0 21 32">
<path fill="#8d86c9" style="fill: var(--color2, #8d86c9)" d="M0.592 0h20.571v5.325l-10.786 26.533h-6.645l10.468-25.85h-13.608v-6.007z"></path>
</symbol>
<symbol id="icon-4" viewBox="0 0 26 32">
<path fill="#8d86c9" style="fill: var(--color2, #8d86c9)" d="M25.048 20.617v5.825h-3.413v5.416h-6.326v-5.416h-15.064v-5.825l10.604-20.617h6.736l-10.559 20.617h8.283v-7.555h6.326v7.555h3.413z"></path>
</symbol>
<symbol id="icon-3" viewBox="0 0 22 32">
<path fill="#8d86c9" style="fill: var(--color2, #8d86c9)" d="M15.021 12.644c2.107 0.623 3.814 1.722 5.12 3.295 1.336 1.544 2.003 3.414 2.003 5.61 0 3.206-1.084 5.713-3.25 7.524-2.137 1.811-4.764 2.716-7.88 2.716-2.434 0-4.616-0.55-6.545-1.647-1.9-1.128-3.28-2.776-4.141-4.942l5.254-3.027c0.771 2.404 2.582 3.606 5.432 3.606 1.573 0 2.79-0.371 3.651-1.113 0.89-0.772 1.336-1.811 1.336-3.117 0-1.277-0.445-2.301-1.336-3.072-0.861-0.772-2.078-1.158-3.651-1.158h-1.336l-2.36-3.562 6.144-8.014h-12.199v-5.743h19.59v5.075l-5.832 7.569z"></path>
</symbol>
<symbol id="icon-button-play" viewBox="0 0 26 32">
<path fill="#fff" style="fill: var(--color1, #fff)" d="M25.6 16l-25.6 16v-32l25.6 16z"></path>
</symbol>
<symbol id="icon-header-arrow" viewBox="0 0 34 32">
<path fill="#fff" style="fill: var(--color1, #fff)" d="M26.003 32h-22c-2.209 0-4-1.791-4-4v0-22c0-2.209 1.791-4 4-4v0h8v4h-8v22h22v-8h4v8c0 2.209-1.791 4-4 4v0zM15.402 19.414l-2.819-2.829 12.586-12.586h-7.166v-4h14v14h-4v-7.17l-12.6 12.584z"></path>
</symbol>
<symbol id="icon-arrow-left" viewBox="0 0 36 32">
<path fill="#fff" style="fill: var(--color1, #fff)" d="M35.556 16c0 0.604-0.235 1.188-0.651 1.616-0.398 0.412-0.955 0.668-1.571 0.67h-25.743l9.54 9.808c0.404 0.413 0.652 0.979 0.652 1.602 0 0.005-0 0.011-0 0.016v-0.001c-0.001 0.628-0.25 1.198-0.653 1.619l0.001-0.001c-0.4 0.41-0.956 0.665-1.572 0.67h-0.001c-0.001 0-0.003 0-0.005 0-0.616 0-1.173-0.257-1.568-0.669l-0.001-0.001-13.332-13.712c-0.404-0.412-0.652-0.978-0.652-1.601 0-0.006 0-0.012 0-0.018v0.001c0.001-0.628 0.25-1.199 0.653-1.619l-0.001 0.001 13.333-13.712c0.414-0.428 0.98-0.67 1.57-0.67s1.156 0.242 1.573 0.67 0.652 1.012 0.652 1.618c0 0.606-0.235 1.189-0.652 1.618l-9.538 9.81h25.742c0.59 0 1.156 0.24 1.572 0.668s0.651 1.010 0.651 1.616z"></path>
</symbol>
<symbol id="icon-slider_arr_left" viewBox="0 0 36 32">
<path fill="#fff" style="fill: var(--color1, #fff)" d="M34.667 16c0 1.142-0.926 2.067-2.067 2.067h-23.945l8.875 8.87c0.356 0.371 0.576 0.876 0.576 1.432 0 1.143-0.926 2.069-2.069 2.069-0.557 0-1.062-0.22-1.434-0.578l0.001 0.001-12.399-12.399c-0.375-0.374-0.607-0.892-0.607-1.463s0.232-1.089 0.607-1.463l12.399-12.399c0.371-0.357 0.877-0.577 1.434-0.577 1.143 0 2.069 0.926 2.069 2.069 0 0.556-0.22 1.061-0.577 1.433l0.001-0.001-8.875 8.87h23.945c0.001 0 0.001 0 0.002 0 1.141 0 2.065 0.925 2.065 2.065 0 0.001 0 0.002 0 0.002v-0z"></path>
</symbol>
<symbol id="icon-slider_arr_right" viewBox="0 0 36 32">
<path fill="#fff" style="fill: var(--color1, #fff)" d="M1.6 16c0 1.142 0.926 2.067 2.067 2.067v0h23.945l-8.875 8.87c-0.356 0.371-0.576 0.876-0.576 1.432 0 1.143 0.926 2.069 2.069 2.069 0.557 0 1.062-0.22 1.434-0.578l-0.001 0.001 12.399-12.399c0.375-0.374 0.607-0.892 0.607-1.463s-0.232-1.089-0.607-1.463l-12.399-12.399c-0.377-0.393-0.907-0.637-1.493-0.637-1.143 0-2.069 0.926-2.069 2.069 0 0.586 0.244 1.115 0.635 1.492l0.001 0.001 8.875 8.87h-23.945c-1.142 0-2.067 0.926-2.067 2.067v0z"></path>
</symbol>
</defs>
</svg>
